<svg width="90" height="90" viewBox="0 0 90 90" fill="none" xmlns="http://www.w3.org/2000/svg">
<path d="M87.1521 3.73413H2.84786C1.27508 3.73413 0 5.00921 0 6.58199V65.0011C0 66.5739 1.27508 67.849 2.84786 67.849H23.919C25.4918 67.849 26.7669 66.5739 26.7669 65.0011C26.7669 63.4283 25.4918 62.1533 23.919 62.1533H5.69572V9.42985H84.3043V62.1533H50.4861C49.9063 62.1533 49.3401 62.3302 48.8636 62.6609L22.2965 81.0779C21.0039 81.9736 20.6827 83.748 21.5784 85.0409C22.1313 85.8387 23.0187 86.2667 23.9217 86.2667C24.4814 86.2667 25.0467 86.1022 25.5415 85.759L51.3766 67.8493H87.1518C88.7245 67.8493 89.9996 66.5743 89.9996 65.0015V6.58199C90 5.00921 88.7249 3.73413 87.1521 3.73413Z" fill="black"/>
<path d="M55.5395 26.3716C57.1123 26.3716 58.3874 25.0965 58.3874 23.5238C58.3874 21.951 57.1123 20.6759 55.5395 20.6759H34.4631C32.8903 20.6759 31.6152 21.951 31.6152 23.5238C31.6152 25.0965 32.8903 26.3716 34.4631 26.3716H55.5395Z" fill="black"/>
<path d="M21.0762 35.7919C21.0762 37.3647 22.3513 38.6397 23.924 38.6397H66.0762C67.649 38.6397 68.924 37.3647 68.924 35.7919C68.924 34.2191 67.649 32.944 66.0762 32.944H23.924C22.3513 32.944 21.0762 34.2187 21.0762 35.7919Z" fill="black"/>
<path d="M23.924 50.9069H66.0762C67.649 50.9069 68.924 49.6318 68.924 48.059C68.924 46.4863 67.649 45.2112 66.0762 45.2112H23.924C22.3513 45.2112 21.0762 46.4863 21.0762 48.059C21.0762 49.6318 22.3513 50.9069 23.924 50.9069Z" fill="black"/>
</svg>
