<svg width="90" height="90" viewBox="0 0 90 90" fill="none" xmlns="http://www.w3.org/2000/svg">
<g clip-path="url(#clip0)">
<path d="M76.9554 11.7899C69.3521 4.18654 59.2426 -0.000425256 48.4904 3.23956e-08C46.7285 3.23956e-08 45.3008 1.42812 45.3008 3.18966C45.3008 4.95121 46.7289 6.37933 48.4904 6.37933C57.5389 6.3789 66.0459 9.90242 72.4444 16.3009C78.8433 22.6994 82.3668 31.2068 82.3664 40.2557C82.3664 42.0172 83.7941 43.4454 85.556 43.4454C87.3176 43.4454 88.7457 42.0172 88.7457 40.2561C88.7461 29.5027 84.5592 19.3932 76.9554 11.7899Z" fill="black"/>
<path d="M63.8344 40.2562C63.8344 42.0178 65.2626 43.4459 67.0245 43.4455C68.7861 43.4455 70.2138 42.0173 70.2138 40.2558C70.2129 28.2797 60.4678 18.535 48.4909 18.5333C48.4904 18.5333 48.4909 18.5333 48.4904 18.5333C46.7289 18.5333 45.3012 19.961 45.3008 21.7226C45.3008 23.4841 46.7285 24.9122 48.49 24.9127C56.9503 24.9139 63.8336 31.7968 63.8344 40.2562Z" fill="black"/>
<path d="M56.7757 56.5191C51.9139 56.2673 49.437 59.8831 48.2491 61.62C47.2544 63.0741 47.6269 65.0589 49.081 66.0536C50.5351 67.0484 52.5199 66.6758 53.5146 65.2218C54.9181 63.1697 55.5539 62.847 56.4164 62.8878C59.1769 63.2123 70.0494 71.1796 71.1382 73.671C71.4112 74.4046 71.401 75.1238 71.108 75.9986C69.9665 79.3864 68.0769 81.7672 65.6426 82.8831C63.3299 83.9434 60.4945 83.8473 57.4447 82.6063C46.0568 77.9647 36.1076 71.4871 27.874 63.353C27.8706 63.3496 27.8672 63.3467 27.8642 63.3433C19.7472 55.1178 13.2815 45.1813 8.64755 33.8108C7.40613 30.7585 7.31001 27.9227 8.37026 25.6104C9.48622 23.176 11.867 21.2865 15.2519 20.1463C16.1296 19.852 16.8475 19.8426 17.5744 20.1131C20.0746 21.2057 28.0416 32.0778 28.3631 34.8073C28.409 35.7021 28.0837 36.3374 26.0333 37.7383C24.5789 38.7318 24.205 40.7166 25.1989 42.1711C26.1924 43.6256 28.1768 43.999 29.6317 43.0055C31.3694 41.819 34.9844 39.3489 34.7335 34.4704C34.457 29.3746 24.5444 15.8798 19.808 14.1382C17.7015 13.3531 15.4858 13.3395 13.2198 14.1C8.12147 15.8168 4.43932 18.8781 2.57145 22.9523C0.759721 26.905 0.817135 31.4909 2.73944 36.2167C7.69873 48.385 14.6373 59.0321 23.3621 67.8632C23.3834 67.8849 23.4051 67.9062 23.4272 67.927C32.2519 76.6357 42.8867 83.5615 55.0389 88.5148C57.4724 89.5045 59.8689 89.9999 62.1608 89.9999C64.3187 89.9999 66.3847 89.561 68.3011 88.6824C72.3758 86.8149 75.4366 83.1332 77.1547 78.0315C77.9134 75.7698 77.9011 73.5549 77.122 71.4582C75.3745 66.709 61.8796 56.7964 56.7757 56.5191Z" fill="black"/>
</g>
<defs>
<clipPath id="clip0">
<rect width="90" height="90" fill="white"/>
</clipPath>
</defs>
</svg>
