<svg width="22" height="21" viewBox="0 0 22 21" xmlns="http://www.w3.org/2000/svg" fill="none"><path d="M6.23 13.405h12.265c1.391 0 2.525-1.038 2.525-2.31v-4.7700000000000005l-.005-.025-.005-.029-.005-.025-.009-.029-.009-.025-.009-.025-.014-.029-.014-.021-.014-.025-.014-.021-.018-.025-.018-.021-.018-.021-.018-.021-.018-.017-.023-.021-.023-.017-.027-.017-.023-.013-.027-.017-.027-.013-.027-.013-.027-.013-.027-.008-.032-.008-.023-.004-.037-.004-.018-.004-15.545-1.962v-1.983l-.005-.059-.005-.017-.005-.038-.009-.033-.005-.021-.014-.038-.005-.017-.018-.033-.009-.017-.018-.025-.014-.021-.014-.021-.018-.025-.014-.013-.027-.025-.014-.013-.032-.025-.018-.013-.027-.021-.037-.021-.014-.008-.059-.025-3.372-1.297c-.316-.121-.677.013-.81.301-.133.289.014.619.329.741l2.992 1.155v12.378c0 1.171.961 2.142 2.2 2.289-.224.343-.357.745-.357 1.172 0 1.259 1.121 2.28 2.493 2.28 1.372 0 2.493-1.025 2.493-2.28 0-.418-.123-.816-.343-1.151h5.554c-.22.339-.343.732-.343 1.151 0 1.259 1.121 2.28 2.493 2.28 1.372 0 2.493-1.025 2.493-2.28s-1.121-2.28-2.493-2.28h-11.665c-.714 0-1.29-.531-1.29-1.18v-1.531c.375.201.819.318 1.29.318zm3.074 4.67c0 .636-.567 1.151-1.258 1.151-.691 0-1.258-.519-1.258-1.151s.567-1.151 1.258-1.151c.691 0 1.258.515 1.258 1.151zm9.854 0c0 .636-.567 1.151-1.258 1.151-.691 0-1.258-.519-1.258-1.151s.567-1.151 1.258-1.151c.691 0 1.258.515 1.258 1.151zm-.663-5.799h-12.265c-.714 0-1.29-.531-1.29-1.18v-6.1049999999999995l14.845 1.87v4.23c0 .657-.581 1.184-1.29 1.184z"/></svg>