<svg width="68" height="66" viewBox="0 0 68 66" fill="none" xmlns="http://www.w3.org/2000/svg">
<path d="M64.6 10.9463H49.8667V6.0813C49.8628 2.72411 47.3283 0.00415715 44.2 0H23.8C20.6717 0.00415715 18.1372 2.72411 18.1333 6.0813V10.9463H3.4C1.52236 10.9463 0 12.5801 0 14.5951V41.6688C0.007194 43.2117 0.913086 44.5841 2.26667 45.1026V62.0293C2.26667 64.0443 3.78903 65.678 5.66667 65.678H62.3333C64.211 65.678 65.7333 64.0443 65.7333 62.0293V45.1038C67.0869 44.5847 67.9934 43.2117 68 41.6688V14.5951C68 12.5801 66.4776 10.9463 64.6 10.9463ZM20.4 6.0813C20.4 4.06628 21.9224 2.43252 23.8 2.43252H44.2C46.0776 2.43252 47.6 4.06628 47.6 6.0813V10.9463H45.3333V6.0813C45.3333 5.40963 44.8259 4.86504 44.2 4.86504H23.8C23.1741 4.86504 22.6667 5.40963 22.6667 6.0813V10.9463H20.4V6.0813ZM43.0667 10.9463H24.9333V7.29756H43.0667V10.9463ZM63.4667 62.0293C63.4667 62.7009 62.9592 63.2455 62.3333 63.2455H5.66667C5.04079 63.2455 4.53333 62.7009 4.53333 62.0293V45.5207L29.4667 49.211V52.2992C29.4667 54.3142 30.989 55.948 32.8667 55.948H35.1333C37.011 55.948 38.5333 54.3142 38.5333 52.2992V49.211L63.4667 45.5207V62.0293ZM36.2667 52.2992C36.2667 52.9709 35.7592 53.5154 35.1333 53.5154H32.8667C32.2408 53.5154 31.7333 52.9709 31.7333 52.2992V45.0016C31.7333 44.3299 32.2408 43.7854 32.8667 43.7854H35.1333C35.7592 43.7854 36.2667 44.3299 36.2667 45.0016V52.2992ZM65.7333 41.6688C65.7339 42.2751 65.3183 42.7894 64.7588 42.8744L64.4445 42.9207L38.5333 46.7553V45.0016C38.5333 42.9866 37.011 41.3528 35.1333 41.3528H32.8667C30.989 41.3528 29.4667 42.9866 29.4667 45.0016V46.7553L3.24229 42.8744C2.68281 42.79 2.26611 42.2757 2.26667 41.6688V14.5951C2.26667 13.9234 2.77412 13.3789 3.4 13.3789H64.6C65.2259 13.3789 65.7333 13.9234 65.7333 14.5951V41.6688Z" fill="black"/>
</svg>
