<svg width="68" height="39" viewBox="0 0 68 39" xmlns="http://www.w3.org/2000/svg" fill="none"><path d="M48.052 22.028h-37.839v-9.264c0-.546-.218-1.069-.606-1.455-.388-.386-.914-.602-1.462-.602h-6.005c-.55 0-1.077.217-1.466.604s-.607.911-.607 1.458v11.852c0 1.447.578 2.835 1.606 3.858 1.028 1.023 2.423 1.598 3.878 1.598h56.895c1.454 0 2.849-.575 3.878-1.598 1.028-1.023 1.606-2.411 1.606-3.858v-11.867c0-.543-.217-1.063-.602-1.447-.386-.384-.909-.599-1.454-.599h-6.021c-.548 0-1.073.216-1.46.602-.387.385-.605.908-.605 1.453v9.266h-5.895M7.061 30.894l-1.548 5.003c-.075.242-.091.497-.049.746.043.249.144.485.295.688.151.203.348.368.575.482.227.114.477.173.731.173h1.461c.313.001.622-.069.902-.206.281-.137.526-.337.717-.583l4.867-6.303M60.827 30.894l1.552 5.003c.075.242.091.497.049.746-.043.249-.144.485-.295.688-.151.203-.348.368-.575.482-.227.114-.477.173-.731.173h-1.464c-.312 0-.619-.071-.899-.208s-.524-.336-.714-.582l-4.874-6.303M10.351 13.844h18.191c1.466 0 2.871.579 3.908 1.61 1.036 1.031 1.619 2.43 1.619 3.888v2.549M57.786 13.844h-18.191c-1.466 0-2.871.579-3.908 1.61-1.036 1.031-1.619 2.43-1.619 3.888v2.549M62.859 10.707v-5.71c0-1.307-.522-2.561-1.451-3.486-.929-.924-2.189-1.444-3.503-1.444h-18.885c-1.313 0-2.572.519-3.501 1.443-.928.924-1.45 2.176-1.45 3.483v16.898M4.73 10.707v-5.71c0-1.307.522-2.561 1.451-3.486.929-.924 2.189-1.444 3.503-1.444h2.86M17.343.068h11.775c1.313 0 2.572.519 3.5 1.443.928.924 1.45 2.176 1.45 3.483v16.898" stroke="#000" stroke-linecap="round" stroke-linejoin="round"/></svg>