<svg width="17" height="17" viewBox="0 0 17 17" xmlns="http://www.w3.org/2000/svg" fill="none"><g clip-path="url(#a)" fill="#fff"><path d="M8.5 13.126c-1.912 0-3.969-.748-5.95-2.162-1.481-1.057-2.395-2.105-2.433-2.149-.156-.181-.156-.449 0-.629.038-.044.952-1.092 2.433-2.149 1.981-1.414 4.038-2.162 5.95-2.162s3.969.748 5.95 2.162c1.481 1.057 2.395 2.105 2.433 2.149.156.181.156.449 0 .629-.038.044-.952 1.092-2.433 2.149-1.981 1.414-4.038 2.162-5.95 2.162zm-7.36-4.626c.37.377 1.067 1.04 1.988 1.695 1.263.898 3.219 1.97 5.372 1.97s4.11-1.071 5.372-1.97c.921-.655 1.618-1.318 1.988-1.695-.37-.377-1.067-1.04-1.988-1.695-1.262-.898-3.219-1.97-5.372-1.97s-4.11 1.071-5.372 1.97c-.921.655-1.618 1.318-1.988 1.695zM8.5 11.48c-1.643 0-2.981-1.337-2.981-2.98s1.337-2.981 2.981-2.981c.723 0 1.42.262 1.963.738.2.175.22.479.045.678-.175.2-.479.22-.678.045-.368-.322-.84-.5-1.33-.5-1.113 0-2.019.906-2.019 2.019s.906 2.019 2.019 2.019 2.019-.906 2.019-2.019c0-.265.215-.481.481-.481.265 0 .481.215.481.481 0 1.643-1.337 2.98-2.98 2.98zM8.5 9.462c-.53 0-.961-.431-.961-.961s.431-.961.961-.961.961.431.961.961-.431.961-.961.961z"/></g><defs><clipPath id="a"><path fill="#fff" d="M0 0h17v17h-17z"/></clipPath></defs></svg>