<svg width="15" height="15" viewBox="0 0 15 15" xmlns="http://www.w3.org/2000/svg" fill="none"><path d="M7.5 14.165c-.214 0-.419-.077-.58-.218-.606-.53-1.19-1.028-1.706-1.467l-.003-.002c-1.511-1.288-2.816-2.4-3.724-3.495-1.015-1.225-1.488-2.386-1.488-3.655 0-1.233.423-2.37 1.19-3.202.776-.842 1.842-1.306 3-1.306.866 0 1.659.274 2.357.814.352.272.672.606.953.995.281-.389.601-.722.953-.995.698-.54 1.491-.814 2.357-.814 1.158 0 2.224.464 3 1.306.767.832 1.19 1.969 1.19 3.202 0 1.269-.473 2.43-1.488 3.654-.908 1.096-2.213 2.208-3.724 3.495-.516.44-1.101.939-1.709 1.47-.16.14-.366.218-.58.218zm-3.31-12.467c-.91 0-1.746.363-2.354 1.023-.617.67-.957 1.595-.957 2.606 0 1.067.397 2.021 1.286 3.094.859 1.037 2.138 2.126 3.617 3.387l.003.002c.517.441 1.104.941 1.714 1.475.614-.535 1.202-1.036 1.72-1.477 1.48-1.261 2.758-2.35 3.617-3.387.889-1.073 1.285-2.027 1.285-3.094 0-1.011-.34-1.937-.957-2.606-.608-.66-1.444-1.023-2.354-1.023-.667 0-1.279.212-1.819.63-.482.373-.817.844-1.014 1.173-.101.169-.279.271-.476.271-.197 0-.375-.101-.476-.271-.197-.33-.532-.801-1.014-1.173-.54-.418-1.153-.63-1.819-.63z" fill="#fff"/></svg>