<svg width="180" height="24" viewBox="0 0 180 24" xmlns="http://www.w3.org/2000/svg" fill="#000"><path d="M.656.6h5.184v18.176h11.232v4.224h-16.416v-22.4zm29.786 22.784c-2.325 0-4.427-.501-6.304-1.504-1.856-1.003-3.317-2.379-4.384-4.128-1.045-1.771-1.568-3.755-1.568-5.952s.523-4.171 1.568-5.92c1.067-1.771 2.528-3.157 4.384-4.16 1.877-1.003 3.979-1.504 6.304-1.504s4.416.501 6.272 1.504c1.856 1.003 3.317 2.389 4.384 4.16 1.067 1.749 1.6 3.723 1.6 5.92s-.533 4.181-1.6 5.952c-1.067 1.749-2.528 3.125-4.384 4.128-1.856 1.003-3.947 1.504-6.272 1.504zm0-4.416c1.323 0 2.517-.299 3.584-.896 1.067-.619 1.899-1.472 2.496-2.56.619-1.088.928-2.325.928-3.712s-.309-2.624-.928-3.712c-.597-1.088-1.429-1.931-2.496-2.528-1.067-.619-2.261-.928-3.584-.928s-2.517.309-3.584.928c-1.067.597-1.909 1.44-2.528 2.528-.597 1.088-.896 2.325-.896 3.712s.299 2.624.896 3.712c.619 1.088 1.461 1.941 2.528 2.56 1.067.597 2.261.896 3.584.896zm31.288-7.52h4.736v9.088c-1.216.917-2.624 1.621-4.224 2.112-1.6.491-3.211.736-4.832.736-2.325 0-4.416-.491-6.272-1.472-1.856-1.003-3.317-2.379-4.384-4.128-1.045-1.771-1.568-3.765-1.568-5.984s.523-4.203 1.568-5.952c1.067-1.771 2.539-3.147 4.416-4.128 1.877-1.003 3.989-1.504 6.336-1.504 1.963 0 3.744.331 5.344.992s2.944 1.621 4.032 2.88l-3.328 3.072c-1.6-1.685-3.531-2.528-5.792-2.528-1.429 0-2.699.299-3.808.896s-1.973 1.44-2.592 2.528-.928 2.336-.928 3.744c0 1.387.309 2.624.928 3.712s1.472 1.941 2.56 2.56c1.109.597 2.368.896 3.776.896 1.493 0 2.837-.32 4.032-.96v-6.56zm20.4 11.936c-2.325 0-4.427-.501-6.304-1.504-1.856-1.003-3.317-2.379-4.384-4.128-1.045-1.771-1.568-3.755-1.568-5.952s.523-4.171 1.568-5.92c1.067-1.771 2.528-3.157 4.384-4.16 1.877-1.003 3.979-1.504 6.304-1.504s4.416.501 6.272 1.504c1.856 1.003 3.317 2.389 4.384 4.16 1.067 1.749 1.6 3.723 1.6 5.92s-.533 4.181-1.6 5.952c-1.067 1.749-2.528 3.125-4.384 4.128-1.856 1.003-3.947 1.504-6.272 1.504zm0-4.416c1.323 0 2.517-.299 3.584-.896 1.067-.619 1.899-1.472 2.496-2.56.619-1.088.928-2.325.928-3.712s-.309-2.624-.928-3.712c-.597-1.088-1.429-1.931-2.496-2.528-1.067-.619-2.261-.928-3.584-.928s-2.517.309-3.584.928c-1.067.597-1.909 1.44-2.528 2.528-.597 1.088-.896 2.325-.896 3.712s.299 2.624.896 3.712c.619 1.088 1.461 1.941 2.528 2.56 1.067.597 2.261.896 3.584.896zm20.48-14.144h-7.168v-4.224h19.52v4.224h-7.168v18.176h-5.184v-18.176zm25.487 10.24v7.936h-5.185v-8l-8.672-14.4h5.505l5.984 9.952 5.984-9.952h5.088l-8.704 14.464zm20.35-14.464c1.984 0 3.701.331 5.152.992 1.472.661 2.602 1.6 3.392 2.816.789 1.216 1.184 2.656 1.184 4.32 0 1.643-.395 3.083-1.184 4.32-.79 1.216-1.92 2.155-3.392 2.816-1.451.64-3.168.96-5.152.96h-4.512v6.176h-5.184v-22.4h9.696zm-.288 12c1.557 0 2.741-.331 3.552-.992.81-.683 1.216-1.643 1.216-2.88 0-1.259-.406-2.219-1.216-2.88-.811-.683-1.995-1.024-3.552-1.024h-4.224v7.776h4.224zm31.061 6.24v4.16h-17.344v-22.4h16.928v4.16h-11.776v4.864h10.4v4.032h-10.4v5.184h12.192z"/></svg>