<svg width="164" height="164" viewBox="0 0 164 164" xmlns="http://www.w3.org/2000/svg" fill="none"><g opacity=".2" clip-path="url(#a)" fill="#F3F3F3"><path d="M163.544 84.735l-18.716-50.59c-.68-1.838-2.035-3.301-3.816-4.12-1.781-.819-3.773-.896-5.612-.215l-91.262 33.763c-1.838.68-3.301 2.035-4.12 3.816-.819 1.781-.895 3.774-.215 5.612l18.716 50.59c.68 1.838 2.035 3.302 3.816 4.121.977.449 2.018.675 3.062.675.859 0 1.72-.153 2.55-.46l91.263-33.763c3.794-1.404 5.738-5.633 4.335-9.427zm-33.16-45.246l-28.308 40.47-47.832-12.302 76.14-28.168zm-66.307 77.981l-16.234-43.883 37.599 9.671-21.365 34.212zm7.95 1.123l20.869-33.418 9.815 2.525c.305.077.613.118.914.118 1.181 0 2.311-.572 3.008-1.567l5.809-8.31 37.594 11.793-78.009 28.86zm44.828-46.958l22.25-31.815 16.241 43.889-38.491-12.074zM42.742 124.594c-.703-1.901-2.814-2.87-4.713-2.168l-13.825 5.115c-1.901.703-2.871 2.813-2.168 4.713.548 1.481 1.949 2.397 3.441 2.397.422 0 .853-.074 1.273-.229l13.825-5.115c1.901-.702 2.871-2.813 2.168-4.713zM24.031 90.536c-.703-1.9-2.814-2.87-4.714-2.168l-8.534 3.157c-1.9.703-2.871 2.813-2.168 4.714.548 1.481 1.95 2.397 3.441 2.397.422 0 .853-.074 1.273-.229l8.534-3.157c1.9-.703 2.871-2.813 2.168-4.713zM13.451 118.326c-.703-1.901-2.814-2.871-4.714-2.168l-6.341 2.346c-1.9.703-2.871 2.814-2.168 4.714.548 1.48 1.949 2.396 3.441 2.396.423 0 .853-.073 1.273-.229l6.341-2.346c1.901-.702 2.871-2.813 2.168-4.713z"/></g><defs><clipPath id="a"><path fill="#fff" d="M0 0h164v164h-164z"/></clipPath></defs></svg>