<svg width="15" height="15" viewBox="0 0 15 15" xmlns="http://www.w3.org/2000/svg" fill="#000"><path d="M11.855 9.292c-.307-.32-.677-.491-1.07-.491-.389 0-.763.168-1.083.488l-1 .997-.244-.127-.313-.168c-.937-.595-1.789-1.371-2.605-2.374-.396-.5-.662-.921-.855-1.349.26-.237.5-.484.734-.722l.266-.269c.665-.665.665-1.526 0-2.191l-.864-.864-.294-.301c-.19-.196-.389-.399-.595-.589-.307-.304-.674-.465-1.061-.465-.386 0-.76.161-1.076.465l-.006.006-1.076 1.086c-.405.405-.636.899-.687 1.472-.076.924.196 1.786.405 2.349.513 1.383 1.279 2.666 2.422 4.04 1.387 1.656 3.055 2.963 4.961 3.885.728.345 1.7.754 2.786.823l.199.006c.731 0 1.345-.263 1.827-.785l.013-.016c.165-.199.355-.38.554-.573l.412-.408c.313-.326.478-.706.478-1.095 0-.393-.168-.769-.487-1.086l-1.738-1.744zm1.133 3.334l-.386.386c-.206.196-.415.402-.611.633-.32.342-.697.503-1.19.503l-.146-.003c-.94-.06-1.814-.427-2.469-.741-1.792-.867-3.365-2.099-4.673-3.66-1.08-1.301-1.801-2.504-2.279-3.796-.294-.788-.402-1.402-.355-1.982.032-.37.174-.677.437-.94l1.08-1.08c.155-.146.32-.225.481-.225.199 0 .361.12.462.222l.01.01c.193.18.377.367.57.567l.301.307.864.864c.336.336.336.646 0 .981l-.272.272c-.266.272-.519.526-.795.772l-.016.016c-.272.272-.222.538-.165.719l.01.028c.225.545.541 1.057 1.023 1.668l.003.003c.874 1.076 1.795 1.915 2.811 2.558l.389.212.313.168.038.022c.108.054.209.079.313.079.263 0 .427-.165.481-.218l1.083-1.083c.108-.108.279-.237.478-.237.196 0 .358.123.456.231l.006.006 1.744 1.744c.326.323.326.655.003.991z"/><defs><clipPath id="a"><path fill="#fff" d="M0 0h15v15h-15z"/></clipPath></defs></svg>