<svg width="27" height="27" viewBox="0 0 27 27" xmlns="http://www.w3.org/2000/svg" fill="#000"><path d="M26.583 2.682c-.33-.403-.824-.625-1.391-.625-.308 0-.635.065-.971.193l-22.855 8.724c-1.213.463-1.376 1.158-1.366 1.53.011.373.213 1.057 1.45 1.451l.022.006 4.741 1.357 2.564 7.331c.35 1 1.134 1.62 2.048 1.62.576 0 1.143-.241 1.639-.698l2.932-2.7 4.253 3.425.002.001.04.032.011.009c.473.367.989.56 1.493.56.985 0 1.769-.729 1.997-1.857l3.745-18.491c.15-.742.024-1.406-.355-1.87zm-18.783 12.379l9.146-4.672-5.695 6.051c-.093.099-.159.22-.192.352l-1.098 4.448-2.161-6.18zm3.593 7.348l-.114.095 1.019-4.127 1.853 1.492-2.758 2.54zm13.995-18.17l-3.745 18.491c-.036.177-.151.589-.447.589-.146 0-.33-.08-.518-.225l-4.819-3.88-.002-.002-2.868-2.309 8.236-8.751c.264-.28.288-.709.057-1.017-.231-.308-.65-.405-.992-.229l-13.546 6.92-4.805-1.375 22.848-8.722c.193-.074.328-.089.407-.089.048 0 .134.006.166.045.042.051.096.226.029.554z" clip-path="url(#a)"/><defs><clipPath id="a"><path fill="#fff" d="M0 0h27v27h-27z"/></clipPath></defs></svg>