<svg width="28" height="28" viewBox="0 0 28 28" fill="none" xmlns="http://www.w3.org/2000/svg">
<g clip-path="url(#clip0)">
<path d="M24.6406 24.4512V12.9929C24.6406 11.0384 23.0461 9.44395 21.0916 9.44395H18.7943C18.4057 9.44395 18.0913 9.75827 18.0913 10.1469C18.0913 10.5355 18.4057 10.8498 18.7943 10.8498H21.0916C22.2746 10.8498 23.2404 11.8156 23.2404 12.9986V24.4626C23.2404 25.6456 22.2746 26.6114 21.0916 26.6114H6.90733C5.72435 26.6114 4.75854 25.6456 4.75854 24.4626V12.9929C4.75854 11.8099 5.72435 10.8441 6.90733 10.8441H9.20471C9.59332 10.8441 9.90764 10.5298 9.90764 10.1412C9.90764 9.75255 9.59332 9.43823 9.20471 9.43823H6.90733C4.95285 9.43823 3.3584 11.0327 3.3584 12.9872V24.4512C3.3584 26.4057 4.95285 28.0001 6.90733 28.0001H21.0916C23.0518 28.0001 24.6406 26.4114 24.6406 24.4512Z" fill="black"/>
<path d="M8.71312 5.9749C8.98743 6.24921 9.42748 6.24921 9.70179 5.9749L13.3022 2.37453V15.5073C13.3022 15.8959 13.6165 16.2102 14.0051 16.2102C14.3937 16.2102 14.708 15.8959 14.708 15.5073V2.38024L18.3084 5.98061C18.4455 6.11777 18.6227 6.18635 18.8056 6.18635C18.9884 6.18635 19.1656 6.11777 19.3028 5.98061C19.5771 5.7063 19.5771 5.26625 19.3028 4.99194L14.508 0.197163C14.2451 -0.065721 13.7822 -0.065721 13.5193 0.197163L8.72455 4.99194C8.4388 5.26054 8.4388 5.70058 8.71312 5.9749Z" fill="black"/>
</g>
<defs>
<clipPath id="clip0">
<rect width="28" height="28" fill="white"/>
</clipPath>
</defs>
</svg>
