<svg width="20" height="21" viewBox="0 0 20 21" xmlns="http://www.w3.org/2000/svg" fill="none"><path d="M9.532 10.887h.146c1.34-.021 2.425-.452 3.225-1.276 1.761-1.816 1.468-4.929 1.436-5.226-.114-2.23-1.267-3.297-2.219-3.795-.709-.372-1.537-.573-2.461-.59h-.077c-.508 0-1.505.075-2.461.573-.961.498-2.132 1.565-2.246 3.812-.032.297-.325 3.41 1.436 5.226.796.824 1.88 1.255 3.221 1.276zm-3.436-6.398l.005-.033c.151-3 2.479-3.322 3.477-3.322h.05499999999999999c1.235.025 3.335.485 3.477 3.322l.005.033c.005.029.325 2.875-1.13 4.373-.576.594-1.345.887-2.356.895h-.046c-1.006-.008-1.78-.301-2.351-.895-1.45-1.49-1.139-4.347-1.135-4.373zM19.006 16.051v-.013l-.005-.105c-.027-.829-.087-2.766-2.072-3.385l-.046-.013c-2.063-.481-3.779-1.569-3.797-1.582-.279-.18-.663-.117-.86.138-.197.255-.128.607.151.787.078.05 1.899 1.209 4.177 1.745 1.066.347 1.185 1.389 1.217 2.343l.005.105c.005.377-.023.958-.096 1.293-.741.385-3.646 1.716-8.065 1.716-4.401 0-7.324-1.335-8.07-1.72-.073-.335-.105-.916-.096-1.293l.005-.105c.032-.954.151-1.996 1.217-2.343 2.278-.536 4.099-1.699 4.177-1.745.279-.18.348-.531.151-.787-.197-.255-.581-.318-.86-.138-.018.012-1.725 1.1-3.797 1.582l-.046.013c-1.985.623-2.045 2.561-2.072 3.385l-.005.105v.013c-.005.218-.009 1.335.233 1.895.046.109.128.201.238.264.137.084 3.426 2 8.93 2 5.503 0 8.793-1.921 8.93-2 .105-.063.192-.155.238-.264.229-.557.224-1.674.22-1.891z"/></svg>