<svg width="15" height="15" viewBox="0 0 15 15" fill="none" xmlns="http://www.w3.org/2000/svg">
<g clip-path="url(#clip0)">
<path d="M14.5026 12.851L10.3655 8.53512C10.6305 8.11867 10.8441 7.67006 10.9894 7.19913C11.1527 6.66962 11.2355 6.11778 11.2355 5.55908C11.2355 2.4939 8.74157 0 5.67627 0C2.61108 0 0.117188 2.4939 0.117188 5.55908C0.117188 8.62438 2.61108 11.1183 5.67627 11.1183C6.04099 11.1183 6.40549 11.0828 6.76014 11.0122C7.034 10.9583 7.21195 10.6923 7.15759 10.4185C7.10335 10.1445 6.83659 9.96391 6.56364 10.0211C6.27377 10.0784 5.97519 10.1075 5.67627 10.1075C3.16841 10.1075 1.12793 8.06728 1.12793 5.55908C1.12793 3.05099 3.16841 1.01074 5.67627 1.01074C8.18424 1.01074 10.2247 3.05099 10.2247 5.55908C10.2247 6.01662 10.1571 6.4682 10.0235 6.90102C9.74373 7.80865 9.16878 8.62495 8.405 9.19842C8.3979 9.2038 8.3947 9.21192 8.38795 9.21764C8.38051 9.22382 8.37101 9.22577 8.3638 9.23241C8.34423 9.25072 8.33496 9.27464 8.31905 9.29512C8.29868 9.32098 8.27751 9.3449 8.26286 9.37363C8.24753 9.40361 8.23963 9.43462 8.23071 9.46667C8.22201 9.49722 8.21239 9.52641 8.20953 9.55811C8.20679 9.59049 8.21114 9.62151 8.21445 9.65401C8.21777 9.68639 8.21995 9.71752 8.22956 9.74911C8.23917 9.78058 8.25611 9.80839 8.27202 9.83791C8.28403 9.86034 8.28884 9.88518 8.30463 9.90623C8.31036 9.91402 8.31917 9.91734 8.32535 9.92466C8.33107 9.93141 8.33279 9.94011 8.33885 9.94663L12.7081 14.6304C12.9544 14.8765 13.2781 15 13.6016 15C13.9253 15 14.2487 14.8766 14.4947 14.6308C14.7336 14.3924 14.8651 14.0751 14.8651 13.737C14.8651 13.3993 14.7336 13.0824 14.5026 12.851ZM13.7803 13.9156C13.6816 14.0143 13.5214 14.0143 13.4351 13.9284L9.43989 9.64531C9.54414 9.54895 9.64474 9.44893 9.74121 9.3449L13.7803 13.5583C13.8448 13.6229 13.8543 13.698 13.8543 13.7369C13.8543 13.7759 13.8447 13.8509 13.7803 13.9156Z" fill="black"/>
<path d="M5.67725 8.08594C5.39812 8.08594 5.17188 7.85992 5.17188 7.58057V3.5376C5.17188 3.25825 5.39812 3.03223 5.67725 3.03223C5.95637 3.03223 6.18262 3.25825 6.18262 3.5376V7.58057C6.18262 7.85992 5.95637 8.08594 5.67725 8.08594Z" fill="black"/>
<path d="M7.69678 6.06445H3.65381C3.37469 6.06445 3.14844 5.83843 3.14844 5.55908C3.14844 5.27973 3.37469 5.05371 3.65381 5.05371H7.69678C7.9759 5.05371 8.20215 5.27973 8.20215 5.55908C8.20215 5.83843 7.9759 6.06445 7.69678 6.06445Z" fill="black"/>
</g>
<defs>
<clipPath id="clip0">
<rect width="15" height="15" fill="white"/>
</clipPath>
</defs>
</svg>
