<svg width="30" height="30" viewBox="0 0 30 30" fill="none" xmlns="http://www.w3.org/2000/svg">
<path d="M18.1885 12.5338H9.50659C9.26384 12.5338 9.06714 12.7306 9.06714 12.9733C9.06714 13.216 9.2639 13.4127 9.50659 13.4127H18.1885C18.4312 13.4127 18.628 13.216 18.628 12.9733C18.628 12.7306 18.4312 12.5338 18.1885 12.5338Z" fill="black"/>
<path d="M25.1454 11.8553C25.0245 11.645 24.7558 11.5725 24.5454 11.6934L22.4884 12.8763L22.6774 12.1913C22.7419 11.9573 22.6045 11.7153 22.3706 11.6508C22.1364 11.5863 21.8946 11.7237 21.8301 11.9576L21.5896 12.8293C21.5031 13.143 21.6134 13.4745 21.8706 13.6738C22.115 13.863 22.4761 13.8973 22.7586 13.7348L24.9835 12.4554C25.1939 12.3344 25.2664 12.0657 25.1454 11.8553Z" fill="black"/>
<path d="M18.1885 15.884H9.50659C9.2639 15.884 9.06714 16.0808 9.06714 16.3235C9.06714 16.5662 9.26384 16.7629 9.50659 16.7629H18.1885C18.4312 16.7629 18.628 16.5662 18.628 16.3235C18.628 16.0808 18.4312 15.884 18.1885 15.884Z" fill="black"/>
<path d="M25.1454 15.2056C25.0244 14.9952 24.7558 14.9227 24.5454 15.0437L22.4884 16.2266L22.6774 15.5416C22.7419 15.3076 22.6045 15.0656 22.3706 15.0011C22.1364 14.9365 21.8946 15.0739 21.8301 15.3079L21.5896 16.1796C21.5031 16.4933 21.6134 16.8248 21.8707 17.024C22.1158 17.2139 22.4753 17.248 22.7587 17.085L24.9836 15.8056C25.1939 15.6846 25.2664 15.416 25.1454 15.2056Z" fill="black"/>
<path d="M18.1885 19.2343H9.50659C9.2639 19.2343 9.06714 19.431 9.06714 19.6737C9.06714 19.9164 9.26384 20.1132 9.50659 20.1132H18.1885C18.4312 20.1132 18.628 19.9164 18.628 19.6737C18.628 19.431 18.4312 19.2343 18.1885 19.2343Z" fill="black"/>
<path d="M25.1454 18.5558C25.0244 18.3455 24.7558 18.2729 24.5454 18.3939L22.4884 19.5768L22.6774 18.8917C22.7419 18.6578 22.6045 18.4158 22.3706 18.3513C22.1364 18.2867 21.8946 18.4241 21.8301 18.6581L21.5896 19.5298C21.5031 19.8435 21.6134 20.1749 21.8707 20.3743C22.1259 20.5719 22.479 20.596 22.7586 20.4353L24.9835 19.1559C25.1939 19.0349 25.2664 18.7662 25.1454 18.5558Z" fill="black"/>
<path d="M18.1885 22.5845H9.50659C9.2639 22.5845 9.06714 22.7812 9.06714 23.0239C9.06714 23.2666 9.26384 23.4634 9.50659 23.4634H18.1885C18.4312 23.4634 18.628 23.2666 18.628 23.0239C18.628 22.7812 18.4312 22.5845 18.1885 22.5845Z" fill="black"/>
<path d="M25.1454 21.906C25.0244 21.6956 24.7558 21.6232 24.5454 21.7441L22.4884 22.927L22.6774 22.242C22.7419 22.008 22.6045 21.766 22.3706 21.7015C22.1364 21.6369 21.8946 21.7743 21.8301 22.0082L21.5896 22.8799C21.5031 23.1936 21.6134 23.5252 21.8707 23.7244C22.1258 23.9221 22.4788 23.9463 22.7586 23.7854L24.9835 22.506C25.1939 22.385 25.2664 22.1165 25.1454 21.906Z" fill="black"/>
<path d="M26.2839 0C26.2839 0 14.1812 0 14.1754 0C14.0603 0 13.9461 0.0474609 13.8646 0.128672C13.8646 0.128672 6.13014 7.86316 6.1285 7.86486C6.0484 7.94631 6 8.06121 6 8.17535V24.3638C6 24.6064 6.19676 24.8032 6.43945 24.8032C6.68215 24.8032 6.87891 24.6064 6.87891 24.3638V8.61481H12.45C13.4199 8.61481 14.2429 7.97367 14.5174 7.09295C14.5821 6.88523 14.6149 6.66744 14.6149 6.44988V0.878906H26.284C26.8395 0.878906 27.2914 1.33113 27.2914 1.88695V7.84031C27.2914 8.08301 27.4882 8.27977 27.7309 8.27977C27.9736 8.27977 28.1704 8.08301 28.1704 7.84031V1.88695C28.1704 0.846504 27.3241 0 26.2839 0ZM13.736 6.44994C13.736 7.14721 13.1518 7.7359 12.45 7.7359H7.50041L13.736 1.50035C13.736 1.50035 13.736 6.44977 13.736 6.44994Z" fill="black"/>
<path d="M27.7308 9.15869C27.4881 9.15869 27.2914 9.35545 27.2914 9.59814V28.1136C27.2914 28.6691 26.8395 29.1211 26.2839 29.1211H7.88643C7.3309 29.1211 6.87896 28.6691 6.87896 28.1136V26.1216C6.87891 25.8789 6.68215 25.6821 6.43945 25.6821C6.19676 25.6821 6 25.8789 6 26.1216V28.1136C6 29.1538 6.84621 30 7.88637 30H26.2839C27.3241 30 28.1703 29.1538 28.1703 28.1136V9.59814C28.1703 9.35545 27.9735 9.15869 27.7308 9.15869Z" fill="black"/>
</svg>
