<svg width="32" height="16" viewBox="0 0 32 16" fill="none" xmlns="http://www.w3.org/2000/svg">
<g clip-path="url(#clip0)">
<path d="M28.4 7.3H3.69C2.20435 7.3 1 8.50436 1 9.99V11.32C1 12.8056 2.20435 14.01 3.69 14.01H28.4C29.8856 14.01 31.09 12.8056 31.09 11.32V9.99C31.09 8.50436 29.8856 7.3 28.4 7.3Z" stroke="#201600" stroke-linecap="round" stroke-linejoin="round"/>
<path d="M13.02 3.96001H6.87998C6.13992 3.96001 5.53998 4.55995 5.53998 5.30001V5.96001C5.53998 6.70007 6.13992 7.30001 6.87998 7.30001H13.02C13.76 7.30001 14.36 6.70007 14.36 5.96001V5.30001C14.36 4.55995 13.76 3.96001 13.02 3.96001Z" stroke="#201600" stroke-linecap="round" stroke-linejoin="round"/>
<path d="M25.21 3.96001H19.07C18.3299 3.96001 17.73 4.55995 17.73 5.30001V5.96001C17.73 6.70007 18.3299 7.30001 19.07 7.30001H25.21C25.95 7.30001 26.55 6.70007 26.55 5.96001V5.30001C26.55 4.55995 25.95 3.96001 25.21 3.96001Z" stroke="#201600" stroke-linecap="round" stroke-linejoin="round"/>
<path d="M6.61001 1H25.5C26.5237 1 27.5056 1.40668 28.2294 2.13057C28.9533 2.85446 29.36 3.83626 29.36 4.86V6.1C29.36 6.41826 29.2336 6.72348 29.0085 6.94853C28.7835 7.17357 28.4783 7.3 28.16 7.3H3.96001C3.64175 7.3 3.33653 7.17357 3.11148 6.94853C2.88644 6.72348 2.76001 6.41826 2.76001 6.1V4.86C2.76001 3.83799 3.16531 2.8577 3.88704 2.1341C4.60877 1.41049 5.58801 1.00265 6.61001 1V1Z" stroke="#201600" stroke-linecap="round" stroke-linejoin="round"/>
<path d="M5.56999 14.22H3.73999V15.61H5.56999V14.22Z" stroke="#201600" stroke-width="0.5" stroke-linecap="round" stroke-linejoin="round"/>
<path d="M28.63 14.22H26.8V15.61H28.63V14.22Z" stroke="#201600" stroke-width="0.5" stroke-linecap="round" stroke-linejoin="round"/>
</g>
<defs>
<clipPath id="clip0">
<rect width="31.59" height="15.86" fill="white"/>
</clipPath>
</defs>
</svg>
