<svg width="31" height="22" viewBox="0 0 31 22" fill="none" xmlns="http://www.w3.org/2000/svg">
<g clip-path="url(#clip0)">
<path d="M28.78 11.43H0.23C0.102975 11.43 0 11.533 0 11.66V14.49C0 14.617 0.102975 14.72 0.23 14.72H28.78C28.907 14.72 29.01 14.617 29.01 14.49V11.66C29.01 11.533 28.907 11.43 28.78 11.43Z" stroke="#201600" stroke-linecap="round" stroke-linejoin="round"/>
<path d="M26.7657 7H2.23431C2.1049 7 2 7.06279 2 7.14024V7.85976C2 7.93721 2.1049 8 2.23431 8H26.7657C26.8951 8 27 7.93721 27 7.85976V7.14024C27 7.06279 26.8951 7 26.7657 7Z" fill="black" stroke="#201600" stroke-width="0.5" stroke-linecap="round" stroke-linejoin="round"/>
<path d="M26.7657 3H2.23431C2.1049 3 2 3.06279 2 3.14024V3.85976C2 3.93721 2.1049 4 2.23431 4H26.7657C26.8951 4 27 3.93721 27 3.85976V3.14024C27 3.06279 26.8951 3 26.7657 3Z" fill="black" stroke="#201600" stroke-width="0.5" stroke-linecap="round" stroke-linejoin="round"/>
<path d="M2.60999 14.72V21.37" stroke="#201600" stroke-linecap="round" stroke-linejoin="round"/>
<path d="M4.39001 14.72V20.24" stroke="#201600" stroke-linecap="round" stroke-linejoin="round"/>
<path d="M26.39 14.72V21.37" stroke="#201600" stroke-linecap="round" stroke-linejoin="round"/>
<path d="M24.61 14.72V20.24" stroke="#201600" stroke-linecap="round" stroke-linejoin="round"/>
<path d="M6.21002 1V11.05" stroke="#201600" stroke-linecap="round" stroke-linejoin="round"/>
<path d="M22.81 1V11.05" stroke="#201600" stroke-linecap="round" stroke-linejoin="round"/>
</g>
<defs>
<clipPath id="clip0">
<rect width="30.51" height="21.62" fill="white"/>
</clipPath>
</defs>
</svg>
