<svg width="69" height="70" viewBox="0 0 69 70" fill="none" xmlns="http://www.w3.org/2000/svg">
<g clip-path="url(#clip0)">
<path d="M17.3311 0.0693359H0.0690918V5.89689H68.7029V0.0693359H21.6121" stroke="black" stroke-linecap="round" stroke-linejoin="round"/>
<path d="M2.83105 7.14563V59.7324H65.8029V35.8671" stroke="black" stroke-linecap="round" stroke-linejoin="round"/>
<path d="M65.803 7.14563V30.1783" stroke="black" stroke-linecap="round" stroke-linejoin="round"/>
<path d="M26.7217 6.3132V58.6224" stroke="black" stroke-linecap="round" stroke-linejoin="round"/>
<path d="M3.79761 23.3795H26.3073" stroke="black" stroke-linecap="round" stroke-linejoin="round"/>
<path d="M3.79761 41.001H26.3073" stroke="black" stroke-linecap="round" stroke-linejoin="round"/>
<path d="M47.0217 6.45187V58.7611" stroke="black" stroke-linecap="round" stroke-linejoin="round"/>
<path d="M4.41919 60.0793V63.8256H31.348" stroke="black" stroke-linecap="round" stroke-linejoin="round"/>
<path d="M64.491 60.0793V63.8256H36.3193" stroke="black" stroke-linecap="round" stroke-linejoin="round"/>
<path d="M7.18115 64.103V69.9306H11.1859L13.8098 64.103" stroke="black" stroke-linecap="round" stroke-linejoin="round"/>
<path d="M62.0053 64.103V69.9306H58.0005L55.3767 64.103" stroke="black" stroke-linecap="round" stroke-linejoin="round"/>
<path d="M13.1191 11.1H15.743" stroke="black" stroke-linecap="round" stroke-linejoin="round"/>
<path d="M13.1191 46.3429H15.743" stroke="black" stroke-linecap="round" stroke-linejoin="round"/>
<path d="M13.1191 28.7214H15.743" stroke="black" stroke-linecap="round" stroke-linejoin="round"/>
<path d="M60.21 28.5827V31.219" stroke="black" stroke-linecap="round" stroke-linejoin="round"/>
<path d="M41.9812 28.5827V31.219" stroke="black" stroke-linecap="round" stroke-linejoin="round"/>
</g>
<defs>
<clipPath id="clip0">
<rect width="68.7719" height="70" fill="white"/>
</clipPath>
</defs>
</svg>
