<svg width="30" height="30" viewBox="0 0 30 30" fill="none" xmlns="http://www.w3.org/2000/svg">
<path d="M29.2997 20.1454L24.1412 14.9869C23.7155 14.5612 23.1495 14.3265 22.5474 14.326C22.5218 14.326 22.496 14.326 22.4703 14.326V13.089C22.7645 12.9468 22.9684 12.6462 22.9684 12.2981V8.78251C22.9684 8.29788 22.5741 7.90361 22.0895 7.90361H17.6707V5.52118C17.6707 4.9387 17.3695 4.41698 16.865 4.12577C16.3606 3.8345 15.7581 3.8345 15.2537 4.12577L12.3069 5.8271C11.7784 5.61393 11.1906 5.61352 10.6614 5.8271L7.7147 4.12577C7.21033 3.8345 6.60786 3.83438 6.10337 4.12577C5.59894 4.41704 5.29771 4.9387 5.29771 5.52118V7.90355H0.878908C0.394278 7.90355 0 8.29783 0 8.78246V12.2981C0 12.7827 0.394278 13.177 0.878908 13.177H8.84744V24.6028H1.81641C1.57442 24.6022 1.37754 24.4053 1.37696 24.1633V14.4954C1.37696 14.2534 1.18008 14.0559 0.937502 14.0559C0.695509 14.0559 0.498634 14.2527 0.498048 14.4941C0.498048 14.4948 0.498048 14.4948 0.498048 14.4954V24.1633C0.498048 24.5155 0.635158 24.8465 0.884181 25.0956C1.13321 25.3446 1.46426 25.4817 1.81641 25.4817H8.96633C9.11855 25.744 9.40185 25.9212 9.72635 25.9212H13.242C13.5665 25.9212 13.8497 25.744 14.002 25.4817H21.1519C21.8788 25.4817 22.4703 24.8903 22.4703 24.1633V23.8101L24.0526 25.3923C24.5043 25.844 25.1048 26.0928 25.7436 26.0928C26.3823 26.0928 26.9828 25.844 27.4345 25.3923L29.2996 23.5272C29.7513 23.0755 30 22.4751 30 21.8363C30.0001 21.1976 29.7513 20.5971 29.2997 20.1454ZM22.0894 8.7824V12.298H14.1209V8.7824H22.0894ZM21.5914 13.1769V14.3247C21.0796 14.3241 20.6209 14.3233 20.3218 14.324C19.9616 14.3248 19.6114 14.4236 19.2985 14.6074C19.0397 14.1712 18.8757 13.6859 18.8154 13.1769H21.5914ZM10.8521 6.70718C11.2551 6.48546 11.7362 6.49835 12.1168 6.7073C12.4187 6.873 12.6389 7.14628 12.7404 7.46404H10.2293C10.332 7.14757 10.5533 6.87148 10.8521 6.70718ZM8.84744 12.298H0.878908V8.7824H8.84744V12.298ZM9.42254 7.10409L7.7147 6.11808C7.50453 5.99667 7.23576 6.06868 7.11441 6.27892C6.99306 6.48909 7.06507 6.75786 7.27525 6.87921L8.98795 7.86804C8.98045 7.8797 8.9733 7.89154 8.96633 7.90355H6.17661V5.52112C6.17661 5.25634 6.31355 5.01927 6.54283 4.88684C6.77216 4.75442 7.04591 4.75442 7.27525 4.88684L9.86334 6.3811C9.67016 6.59169 9.52086 6.83714 9.42254 7.10409ZM13.242 8.34294V12.298H11.0151C10.773 12.298 10.5756 12.4948 10.5756 12.7375C10.5756 12.9801 10.773 13.1769 11.0151 13.1769H13.242V25.0422H9.72635L9.72658 8.34294H13.241C13.2413 8.34294 13.2416 8.34294 13.242 8.34294ZM14.0019 7.90349C13.995 7.89148 13.9879 7.87964 13.9803 7.86798L15.6931 6.87915C15.9033 6.7578 15.9753 6.48903 15.8539 6.27886C15.7326 6.06862 15.4638 5.99667 15.2536 6.11802L13.5449 7.10456C13.4464 6.83749 13.2971 6.59169 13.1047 6.38128L15.6931 4.88684C15.9224 4.75442 16.1963 4.75442 16.4255 4.88684C16.6548 5.01927 16.7917 5.2564 16.7917 5.52112V7.90349H14.0019ZM21.1519 24.6028H14.1209V13.177H17.9306C18 13.9061 18.2423 14.5981 18.6363 15.2063C18.3746 15.5625 18.2324 15.9814 18.2313 16.4145C18.2313 16.4146 18.2332 16.4146 18.2332 16.4147C18.2321 16.9027 18.2326 17.8459 18.2332 18.6401C18.2337 19.2421 18.4684 19.8082 18.8941 20.2339L21.5913 22.9312V24.1633H21.5914C21.5914 24.4056 21.3943 24.6028 21.1519 24.6028ZM28.6781 22.9057L26.813 24.7708C26.5274 25.0565 26.1476 25.2139 25.7436 25.2139C25.3396 25.2139 24.9598 25.0565 24.6741 24.7708L22.3418 22.4386C22.3417 22.4385 22.3415 22.4383 22.3414 22.4381L19.5157 19.6125C19.2558 19.3525 19.1106 19.007 19.1103 18.6395C19.1097 17.8425 19.1092 16.9034 19.1103 16.4167C19.1107 16.2507 19.1498 16.0874 19.2217 15.9348C19.229 15.9422 19.2358 15.9501 19.2433 15.9574L19.8135 16.5276C19.8993 16.6134 20.0118 16.6563 20.1242 16.6563C20.2367 16.6563 20.3492 16.6134 20.435 16.5276C20.6066 16.3559 20.6066 16.0777 20.435 15.9061L19.8648 15.3359C19.8576 15.3287 19.8508 15.321 19.8436 15.3137C19.9959 15.2423 20.1586 15.2034 20.3239 15.2031C20.7597 15.2019 21.9588 15.2045 22.5469 15.2049C22.9144 15.2052 23.2599 15.3485 23.5198 15.6085L28.6782 20.7669C28.9639 21.0526 29.1213 21.4323 29.1213 21.8364C29.1212 22.2403 28.9638 22.6201 28.6781 22.9057Z" fill="black"/>
</svg>
