<svg width="21" height="23" viewBox="0 0 21 23" fill="none" xmlns="http://www.w3.org/2000/svg">
<path d="M20.8184 21.8271L15.7139 16.2377C17.0832 14.514 17.9122 12.265 17.9122 9.80687C17.9122 4.39601 13.8929 0 8.95609 0C4.01464 0 0 4.40111 0 9.80687C0 15.2126 4.01929 19.6137 8.95609 19.6137C11.2009 19.6137 13.2548 18.706 14.829 17.2067L19.9335 22.796C20.0546 22.9286 20.2176 23 20.3759 23C20.5343 23 20.6973 22.9337 20.8184 22.796C21.0605 22.5308 21.0605 22.0922 20.8184 21.8271ZM1.25283 9.80687C1.25283 5.15588 4.70858 1.37694 8.95143 1.37694C13.1989 1.37694 16.65 5.16098 16.65 9.80687C16.65 14.4528 13.1989 18.2419 8.95143 18.2419C4.70858 18.2419 1.25283 14.4579 1.25283 9.80687Z" fill="black"/>
</svg>
