<svg width="31" height="20" viewBox="0 0 31 20" fill="none" xmlns="http://www.w3.org/2000/svg">
<g clip-path="url(#clip0)">
<path d="M29.01 1H0V2.95H29.01V1Z" stroke="#201600" stroke-width="0.5" stroke-linecap="round" stroke-linejoin="round"/>
<path d="M2.60999 3.23001V19.23L3.90999 17.94C4.09544 17.7656 4.34042 17.6686 4.59499 17.6686C4.84955 17.6686 5.09453 17.7656 5.27999 17.94L5.88999 18.55C6.07544 18.7244 6.32042 18.8215 6.57499 18.8215C6.82955 18.8215 7.07453 18.7244 7.25999 18.55L7.85999 17.95C8.04596 17.7727 8.29304 17.6738 8.54999 17.6738C8.80693 17.6738 9.05401 17.7727 9.23999 17.95L10.44 19.15L6.15999 12C7.13153 11.7825 8.01601 11.2799 8.70013 10.5566C9.38426 9.83324 9.83687 8.92215 9.99999 7.94001C10.0605 7.03644 10.3013 6.15414 10.7084 5.34519C11.1154 4.53623 11.6804 3.81703 12.37 3.23001" stroke="#201600" stroke-linecap="round" stroke-linejoin="round"/>
<path d="M6.15999 11.96C6.15999 11.96 3.15999 12.1 2.60999 11.02" stroke="#201600" stroke-linecap="round" stroke-linejoin="round"/>
<path d="M26.32 3.23001V19.23L25.03 17.95C24.844 17.7727 24.5969 17.6738 24.34 17.6738C24.083 17.6738 23.836 17.7727 23.65 17.95L23.04 18.56C22.8545 18.7344 22.6095 18.8315 22.355 18.8315C22.1004 18.8315 21.8554 18.7344 21.67 18.56L21.07 17.96C20.884 17.7827 20.6369 17.6838 20.38 17.6838C20.123 17.6838 19.876 17.7827 19.69 17.96L18.49 19.16L22.75 12C21.7784 11.7825 20.894 11.2799 20.2098 10.5566C19.5257 9.83324 19.0731 8.92215 18.91 7.94001C18.8495 7.03644 18.6086 6.15414 18.2016 5.34519C17.7945 4.53623 17.2296 3.81703 16.54 3.23001" stroke="#201600" stroke-linecap="round" stroke-linejoin="round"/>
<path d="M22.75 11.97C22.75 11.97 25.75 12.12 26.3 11.03" stroke="#201600" stroke-linecap="round" stroke-linejoin="round"/>
</g>
<defs>
<clipPath id="clip0">
<rect width="30.01" height="19.49" fill="white"/>
</clipPath>
</defs>
</svg>
